<svg width="61" height="62" viewBox="0 0 61 62" fill="none" xmlns="http://www.w3.org/2000/svg">
<g filter="url(#filter0_d_108_74)">
<path fill-rule="evenodd" clip-rule="evenodd" d="M30.5 49.2231C41.8218 49.2231 51 40.045 51 28.7231C51 17.4013 41.8218 8.22314 30.5 8.22314C19.1782 8.22314 10 17.4013 10 28.7231C10 40.045 19.1782 49.2231 30.5 49.2231Z" fill="white"/>
</g>
<path fill-rule="evenodd" clip-rule="evenodd" d="M33.1084 26.4676C32.7883 26.3663 32.4202 26.2988 32.0842 26.2988C31.6681 26.2988 30.7719 26.5857 30.7719 27.1426V28.4758H32.9003V30.7203H30.7719V36.9136H28.6275V30.7203H27.5713V28.4758H28.6275V27.3451C28.6275 25.6407 29.3636 24.2231 31.14 24.2231C31.7481 24.2231 32.8363 24.2569 33.4284 24.4763L33.1084 26.4676Z" fill="#080809"/>
<defs>
<filter id="filter0_d_108_74" x="0" y="0.223145" width="61" height="61" filterUnits="userSpaceOnUse" color-interpolation-filters="sRGB">
<feFlood flood-opacity="0" result="BackgroundImageFix"/>
<feColorMatrix in="SourceAlpha" type="matrix" values="0 0 0 0 0 0 0 0 0 0 0 0 0 0 0 0 0 0 127 0" result="hardAlpha"/>
<feOffset dy="2"/>
<feGaussianBlur stdDeviation="5"/>
<feColorMatrix type="matrix" values="0 0 0 0 0 0 0 0 0 0 0 0 0 0 0 0 0 0 0.1 0"/>
<feBlend mode="normal" in2="BackgroundImageFix" result="effect1_dropShadow_108_74"/>
<feBlend mode="normal" in="SourceGraphic" in2="effect1_dropShadow_108_74" result="shape"/>
</filter>
</defs>
</svg>
