<svg width="107" height="36" viewBox="0 0 107 36" fill="none" xmlns="http://www.w3.org/2000/svg">
<rect y="0.223145" width="107" height="35" rx="17.5" fill="#080809"/>
<g clip-path="url(#clip0_108_77)">
<path d="M28.5075 17.2249L18.4639 26.8962C17.9936 26.5748 17.7144 26.0401 17.7193 25.4705V8.97941C17.7144 8.40978 17.9936 7.87513 18.4639 7.55371L28.5075 17.2249Z" fill="#2196F3"/>
<path d="M32.0217 13.8468L28.5074 17.2249L18.4639 7.55368C18.5017 7.52435 18.5411 7.49706 18.5819 7.47195C19.1127 7.15023 19.7757 7.13984 20.3164 7.44471L32.0217 13.8468Z" fill="#4CAF50"/>
<path d="M36.2806 17.2248C36.2872 17.8679 35.9377 18.4618 35.3725 18.7686L32.0217 20.6029L28.5073 17.2248L32.0217 13.8467L35.3725 15.681C35.9377 15.9878 36.2872 16.5817 36.2806 17.2248Z" fill="#F0BB1F"/>
<path d="M32.0217 20.603L20.3164 27.0051C19.7745 27.3052 19.114 27.2948 18.5819 26.9778C18.5411 26.9527 18.5017 26.9254 18.4639 26.8961L28.5074 17.2249L32.0217 20.603Z" fill="#F15A2B"/>
</g>
<path d="M48.024 12.1032H45.216V13.2232H46.712C46.512 13.7592 46.024 14.0872 45.28 14.0872C44.192 14.0872 43.52 13.3912 43.52 12.4392C43.52 11.4552 44.224 10.7592 45.168 10.7592C45.8 10.7592 46.304 11.0472 46.536 11.4152L47.624 10.7912C47.152 10.0392 46.248 9.51123 45.176 9.51123C43.528 9.51123 42.24 10.8072 42.24 12.4312C42.24 14.0392 43.504 15.3352 45.264 15.3352C46.832 15.3352 48.024 14.2952 48.024 12.5832V12.1032Z" fill="white"/>
<path d="M49.6256 13.9912V12.9992H51.6256V11.7832H49.6256V10.8552H51.8256V9.62323H48.3456V15.2232H51.8656V13.9912H49.6256Z" fill="white"/>
<path d="M55.9478 9.62323H51.7878V10.8552H53.2278V15.2232H54.5078V10.8552H55.9478V9.62323Z" fill="white"/>
<path d="M57.7081 9.62323V15.2232H58.9881V9.62323H57.7081Z" fill="white"/>
<path d="M63.3103 9.62323H59.1503V10.8552H60.5903V15.2232H61.8703V10.8552H63.3103V9.62323Z" fill="white"/>
<path d="M67.7426 15.3352C69.3506 15.3352 70.6546 14.0712 70.6546 12.4232C70.6546 10.7752 69.3506 9.51123 67.7426 9.51123C66.1346 9.51123 64.8306 10.7752 64.8306 12.4232C64.8306 14.0712 66.1346 15.3352 67.7426 15.3352ZM67.7426 14.0872C66.8306 14.0872 66.1106 13.4232 66.1106 12.4232C66.1106 11.4232 66.8306 10.7592 67.7426 10.7592C68.6546 10.7592 69.3746 11.4232 69.3746 12.4232C69.3746 13.4232 68.6546 14.0872 67.7426 14.0872Z" fill="white"/>
<path d="M74.0953 9.62323V12.6632L71.9353 9.62323H70.9753V15.2232H72.2553V12.1832L74.4153 15.2232H75.3753V9.62323H74.0953Z" fill="white"/>
<path d="M48.024 21.6152V21.8312C48.024 22.5299 47.776 23.1192 47.28 23.5992C46.784 24.0739 46.1307 24.3112 45.32 24.3112C44.4667 24.3112 43.7627 24.0339 43.208 23.4792C42.6533 22.9192 42.376 22.2339 42.376 21.4232C42.376 20.6126 42.6507 19.9299 43.2 19.3752C43.7493 18.8152 44.4453 18.5352 45.288 18.5352C45.8 18.5352 46.2693 18.6579 46.696 18.9032C47.128 19.1486 47.4613 19.4766 47.696 19.8872L47.32 20.1112C47.1333 19.7592 46.856 19.4766 46.488 19.2632C46.1253 19.0499 45.7253 18.9432 45.288 18.9432C44.5627 18.9432 43.9653 19.1832 43.496 19.6632C43.032 20.1379 42.8 20.7246 42.8 21.4232C42.8 22.1219 43.0347 22.7112 43.504 23.1912C43.9733 23.6659 44.5787 23.9032 45.32 23.9032C45.976 23.9032 46.5067 23.7246 46.912 23.3672C47.3173 23.0099 47.544 22.5592 47.592 22.0152H45.216V21.6152H48.024Z" fill="white"/>
<path d="M53.7026 23.4712C53.1426 24.0312 52.4599 24.3112 51.6546 24.3112C50.8493 24.3112 50.1666 24.0312 49.6066 23.4712C49.0466 22.9059 48.7666 22.2232 48.7666 21.4232C48.7666 20.6232 49.0466 19.9432 49.6066 19.3832C50.1666 18.8179 50.8493 18.5352 51.6546 18.5352C52.4599 18.5352 53.1426 18.8179 53.7026 19.3832C54.2626 19.9432 54.5426 20.6232 54.5426 21.4232C54.5426 22.2232 54.2626 22.9059 53.7026 23.4712ZM49.9026 23.1832C50.3826 23.6632 50.9666 23.9032 51.6546 23.9032C52.3426 23.9032 52.9239 23.6632 53.3986 23.1832C53.8786 22.6979 54.1186 22.1112 54.1186 21.4232C54.1186 20.7352 53.8786 20.1512 53.3986 19.6712C52.9239 19.1859 52.3426 18.9432 51.6546 18.9432C50.9666 18.9432 50.3826 19.1859 49.9026 19.6712C49.4279 20.1512 49.1906 20.7352 49.1906 21.4232C49.1906 22.1112 49.4279 22.6979 49.9026 23.1832Z" fill="white"/>
<path d="M60.2339 23.4712C59.6739 24.0312 58.9912 24.3112 58.1859 24.3112C57.3805 24.3112 56.6979 24.0312 56.1379 23.4712C55.5779 22.9059 55.2979 22.2232 55.2979 21.4232C55.2979 20.6232 55.5779 19.9432 56.1379 19.3832C56.6979 18.8179 57.3805 18.5352 58.1859 18.5352C58.9912 18.5352 59.6739 18.8179 60.2339 19.3832C60.7939 19.9432 61.0739 20.6232 61.0739 21.4232C61.0739 22.2232 60.7939 22.9059 60.2339 23.4712ZM56.4339 23.1832C56.9139 23.6632 57.4979 23.9032 58.1859 23.9032C58.8739 23.9032 59.4552 23.6632 59.9299 23.1832C60.4099 22.6979 60.6499 22.1112 60.6499 21.4232C60.6499 20.7352 60.4099 20.1512 59.9299 19.6712C59.4552 19.1859 58.8739 18.9432 58.1859 18.9432C57.4979 18.9432 56.9139 19.1859 56.4339 19.6712C55.9592 20.1512 55.7219 20.7352 55.7219 21.4232C55.7219 22.1112 55.9592 22.6979 56.4339 23.1832Z" fill="white"/>
<path d="M67.4771 21.6152V21.8312C67.4771 22.5299 67.2291 23.1192 66.7331 23.5992C66.2371 24.0739 65.5838 24.3112 64.7731 24.3112C63.9198 24.3112 63.2158 24.0339 62.6611 23.4792C62.1064 22.9192 61.8291 22.2339 61.8291 21.4232C61.8291 20.6126 62.1038 19.9299 62.6531 19.3752C63.2024 18.8152 63.8984 18.5352 64.7411 18.5352C65.2531 18.5352 65.7224 18.6579 66.1491 18.9032C66.5811 19.1486 66.9144 19.4766 67.1491 19.8872L66.7731 20.1112C66.5864 19.7592 66.3091 19.4766 65.9411 19.2632C65.5784 19.0499 65.1784 18.9432 64.7411 18.9432C64.0158 18.9432 63.4184 19.1832 62.9491 19.6632C62.4851 20.1379 62.2531 20.7246 62.2531 21.4232C62.2531 22.1219 62.4878 22.7112 62.9571 23.1912C63.4264 23.6659 64.0318 23.9032 64.7731 23.9032C65.4291 23.9032 65.9598 23.7246 66.3651 23.3672C66.7705 23.0099 66.9971 22.5592 67.0451 22.0152H64.6691V21.6152H67.4771Z" fill="white"/>
<path d="M68.9637 23.8232H71.6037V24.2232H68.5397V18.6232H68.9637V23.8232Z" fill="white"/>
<path d="M72.9091 23.8232H75.7091V24.2232H72.4851V18.6232H75.6691V19.0232H72.9091V21.1992H75.4691V21.5992H72.9091V23.8232Z" fill="white"/>
<path d="M80.7875 18.6232C81.2888 18.6232 81.7048 18.7886 82.0355 19.1192C82.3662 19.4499 82.5315 19.8632 82.5315 20.3592C82.5315 20.8552 82.3662 21.2686 82.0355 21.5992C81.7048 21.9246 81.2888 22.0872 80.7875 22.0872H79.3075V24.2232H78.8835V18.6232H80.7875ZM80.7875 21.6872C81.1715 21.6872 81.4862 21.5619 81.7315 21.3112C81.9822 21.0606 82.1075 20.7432 82.1075 20.3592C82.1075 19.9699 81.9822 19.6499 81.7315 19.3992C81.4862 19.1486 81.1715 19.0232 80.7875 19.0232H79.3075V21.6872H80.7875Z" fill="white"/>
<path d="M84.0028 23.8232H86.6428V24.2232H83.5788V18.6232H84.0028V23.8232Z" fill="white"/>
<path d="M91.4484 24.2232L90.9044 22.7992H88.0964L87.5524 24.2232H87.1044L89.2804 18.6232H89.7284L91.8964 24.2232H91.4484ZM88.2564 22.3992H90.7524L89.5044 19.1432L88.2564 22.3992Z" fill="white"/>
<path d="M95.8809 18.6232L93.8409 21.9192V24.2232H93.4169V21.9192L91.3769 18.6232H91.8569L93.6329 21.5112L95.4009 18.6232H95.8809Z" fill="white"/>
<defs>
<clipPath id="clip0_108_77">
<rect width="20" height="20" fill="white" transform="translate(17 7.22314)"/>
</clipPath>
</defs>
</svg>
