<svg width="154" height="139" viewBox="0 0 154 139" fill="none" xmlns="http://www.w3.org/2000/svg">
<path d="M40.8052 64.9999C40.8052 74.9411 48.864 82.9999 58.8052 82.9999L85.8052 82.9999C88.5666 82.9999 90.8052 80.7614 90.8052 77.9999L90.8052 43.9999C90.8052 38.4771 86.328 33.9999 80.8052 33.9999L45.8052 33.9999C43.0437 33.9999 40.8052 36.2385 40.8052 38.9999L40.8052 64.9999Z" fill="#FFF1DA"/>
<path d="M89.3257 78.9461C87.9702 79.2115 86.6537 79.7423 85.4578 80.505C82.3415 82.4411 80.5518 85.2919 81.4604 86.8719C82.3691 88.4519 85.632 88.1624 88.7482 86.2263C89.9607 85.4925 91.0338 84.5389 91.9014 83.4247C92.3037 82.8858 92.368 82.2 92.0655 81.6758L90.8851 79.6233C90.5847 79.0975 89.9727 78.8322 89.3257 78.9461Z" fill="#D5D6DB"/>
<path d="M81.4561 51.9517C80.4732 52.1443 79.5185 52.5294 78.6513 53.0825C76.3922 54.4861 75.0936 56.5531 75.752 57.6979C76.4104 58.8426 78.7772 58.6324 81.036 57.2291C81.9152 56.6966 82.6932 56.0049 83.3224 55.1968C83.6138 54.8062 83.6602 54.3093 83.441 53.9293L82.5863 52.4431C82.3687 52.062 81.9253 51.8692 81.4561 51.9517Z" fill="#D5D6DB"/>
<path d="M68.6357 52.7228C68.416 52.6907 68.1828 52.7425 67.9817 52.8676L62.6772 56.1613C62.2335 56.4359 62.0619 56.9871 62.2944 57.3927C62.3475 57.4857 62.4196 57.5659 62.5067 57.6288L75.8209 67.3076L93.5087 56.325L68.6357 52.7228Z" fill="#029BC5"/>
<path d="M125.08 52.4755L76.6603 82.6442L47.9217 93.5722L33.2251 96.1107L31.566 93.2081L112.289 43.9405C114.694 42.4655 117.384 41.6007 120.087 41.4336C121.271 41.367 122.441 41.4468 123.572 41.6704C124.575 41.8605 125.528 42.1947 126.403 42.6629C127.379 43.1929 129.226 43.3117 129.838 44.3232C129.84 44.3217 131.311 48.921 125.08 52.4755Z" fill="#E1E6E9"/>
<path d="M77.049 77.923L56.427 111.712C56.1701 112.187 56.3337 112.735 56.792 112.935C57.0732 113.057 57.415 113.024 57.7001 112.846L63.0198 109.53C64.0429 108.892 64.9454 108.069 65.6715 107.111L105.899 59.1404L77.049 77.923Z" fill="#029BC5"/>
<path d="M24.1359 76.9137C23.7846 76.7811 23.3693 76.8304 23.0211 77.0457L18.6491 79.7488C18.0533 80.1168 17.824 80.8543 18.1365 81.3962C18.1961 81.4993 18.2729 81.5907 18.3645 81.667L30.8577 92.1015L43.7389 84.3001L24.1359 76.9137Z" fill="#029BC5"/>
<path d="M34.8372 93.6722L28.2736 103.08C28.1773 103.215 28.2027 103.39 28.3302 103.47C28.4222 103.527 28.5467 103.522 28.647 103.455L32.7582 100.892C32.7902 100.872 32.819 100.847 32.8427 100.818L42.458 88.9263L34.8372 93.6722Z" fill="#029BC5"/>
<path d="M122.893 41.8971C121.734 41.6695 120.533 41.5896 119.319 41.6587C118.159 43.3076 117.428 45.1786 117.2 47.0853C117.187 47.4694 117.494 47.7563 117.887 47.7261C118.01 47.7165 118.131 47.6767 118.239 47.61L125.796 42.9085C124.898 42.4309 123.921 42.0904 122.893 41.8971Z" fill="#029BC5"/>
<path d="M106.332 50.6084L111.223 47.6284L115.926 55.6545L111.035 58.6344L106.332 50.6084Z" fill="#D5D6DB"/>
<path d="M103.191 53.8437C102.601 54.2041 102.374 54.9283 102.684 55.4611L103.186 56.3243C103.515 56.8445 104.252 56.9595 104.831 56.581C105.383 56.2207 105.597 55.5383 105.321 55.0194L104.819 54.1562C104.51 53.6239 103.781 53.4839 103.191 53.8437Z" fill="#3A556A"/>
<path d="M98.7267 56.6162C98.1368 56.9766 97.9094 57.7008 98.2192 58.2336L98.7213 59.0968C99.0508 59.6169 99.7876 59.7319 100.367 59.3535C100.919 58.9931 101.133 58.3108 100.857 57.7919L100.355 56.9287C100.045 56.3965 99.3164 56.2565 98.7267 56.6162Z" fill="#3A556A"/>
<path d="M94.2609 59.3895C93.6716 59.7504 93.445 60.4738 93.7546 61.0061L94.2567 61.8692C94.5862 62.3894 95.323 62.5044 95.9025 62.126C96.4539 61.7656 96.6682 61.0833 96.3925 60.5644L95.8904 59.7012C95.5805 59.1685 94.8511 59.0289 94.2609 59.3895Z" fill="#3A556A"/>
<path d="M89.7965 62.1618C89.2072 62.5228 88.9807 63.2462 89.2903 63.7785L89.7923 64.6417C90.1219 65.1619 90.8587 65.2769 91.4381 64.8984C91.9896 64.538 92.2039 63.8557 91.9281 63.3368L91.4261 62.4736C91.1159 61.941 90.3865 61.8014 89.7965 62.1618Z" fill="#3A556A"/>
<path d="M85.3324 64.9344C84.7429 65.2954 84.5162 66.019 84.826 66.5514L85.3282 67.4148C85.6379 67.9471 86.3669 68.0865 86.9567 67.7263C87.5464 67.3661 87.7735 66.6427 87.4638 66.1104L86.9615 65.247C86.6527 64.7143 85.9238 64.5741 85.3337 64.9336C85.3332 64.934 85.3329 64.9341 85.3324 64.9344Z" fill="#3A556A"/>
<path d="M80.8681 67.7069C80.2785 68.0679 80.0518 68.7914 80.3616 69.3239L80.8639 70.1873C81.1735 70.7195 81.9026 70.859 82.4923 70.4988C83.0821 70.1386 83.3091 69.4151 82.9995 68.8829L82.4972 68.0195C82.1883 67.4868 81.4595 67.3466 80.8693 67.7061C80.8688 67.7064 80.8683 67.7067 80.8681 67.7069Z" fill="#3A556A"/>
<path d="M76.4035 70.4794C75.8139 70.8404 75.5872 71.5639 75.897 72.0964L76.3993 72.9598C76.7096 73.4915 77.4391 73.6299 78.0281 73.2691C78.6162 72.909 78.8428 72.1871 78.5346 71.6555L78.0323 70.7922C77.7228 70.2596 76.9937 70.1195 76.4035 70.4794Z" fill="#3A556A"/>
<path d="M71.9389 73.2519C71.3493 73.6129 71.1226 74.3365 71.4324 74.869L71.9347 75.7323C72.245 76.2641 72.9745 76.4025 73.5635 76.0417C74.1516 75.6816 74.3782 74.9596 74.07 74.4281L73.5677 73.5647C73.2582 73.0321 72.5291 72.892 71.9389 73.2519Z" fill="#3A556A"/>
<path d="M67.4746 76.0243C66.8851 76.3853 66.6584 77.1089 66.9682 77.6413L67.4704 78.5047C67.7808 79.0365 68.5102 79.1748 69.0993 78.8141C69.6874 78.454 69.914 77.732 69.6057 77.2005L69.1035 76.3371C68.7937 75.8046 68.0646 75.6646 67.4746 76.0243Z" fill="#3A556A"/>
<path d="M63.0087 78.7976C62.419 79.1578 62.1919 79.8812 62.5016 80.4135L62.5022 80.4146L63.0045 81.278C63.3149 81.8098 64.0443 81.9481 64.6334 81.5874C65.2214 81.2273 65.448 80.5053 65.1398 79.9737L64.6375 79.1103C64.328 78.5777 63.5989 78.4376 63.0087 78.7976Z" fill="#3A556A"/>
<path d="M58.5456 81.5693C57.9558 81.9294 57.7288 82.6529 58.0384 83.1851L58.0391 83.1862L58.5414 84.0496C58.8518 84.5814 59.5812 84.7197 60.1703 84.359C60.7584 83.9989 60.9849 83.2769 60.6767 82.7454L60.1744 81.882C59.8647 81.3496 59.1356 81.2095 58.5456 81.5693Z" fill="#3A556A"/>
</svg>
