<svg width="65" height="66" viewBox="0 0 65 66" fill="none" xmlns="http://www.w3.org/2000/svg">
<g filter="url(#filter0_d_108_73)">
<path fill-rule="evenodd" clip-rule="evenodd" d="M32.5 53.2231C44.9264 53.2231 55 43.1496 55 30.7231C55 18.2967 44.9264 8.22314 32.5 8.22314C20.0736 8.22314 10 18.2967 10 30.7231C10 43.1496 20.0736 53.2231 32.5 53.2231Z" fill="url(#paint0_angular_108_73)"/>
</g>
<g clip-path="url(#clip0_108_73)">
<path d="M38.6562 22.2231H27.3438C26.0516 22.2231 25 23.2747 25 24.5669V35.8794C25 37.1719 26.0516 38.2231 27.3438 38.2231H38.6562C39.9487 38.2231 41 37.1719 41 35.8794V24.5669C41 23.2747 39.9487 22.2231 38.6562 22.2231ZM40.0625 35.8794C40.0625 36.6547 39.4316 37.2856 38.6562 37.2856H27.3438C26.5684 37.2856 25.9375 36.6547 25.9375 35.8794V24.5669C25.9375 23.7916 26.5684 23.1606 27.3438 23.1606H38.6562C39.4316 23.1606 40.0625 23.7916 40.0625 24.5669V35.8794Z" fill="white"/>
<path d="M38.1562 24.1294C37.6394 24.1294 37.2188 24.55 37.2188 25.0669C37.2188 25.5838 37.6394 26.0044 38.1562 26.0044C38.6731 26.0044 39.0938 25.5838 39.0938 25.0669C39.0938 24.55 38.6731 24.1294 38.1562 24.1294Z" fill="white"/>
<path d="M33 26.0044C30.6737 26.0044 28.7812 27.8969 28.7812 30.2231C28.7812 32.5494 30.6737 34.4419 33 34.4419C35.3263 34.4419 37.2188 32.5494 37.2188 30.2231C37.2188 27.8969 35.3263 26.0044 33 26.0044ZM33 33.5044C31.1906 33.5044 29.7188 32.0325 29.7188 30.2231C29.7188 28.4138 31.1906 26.9419 33 26.9419C34.8094 26.9419 36.2812 28.4138 36.2812 30.2231C36.2812 32.0325 34.8094 33.5044 33 33.5044Z" fill="white"/>
</g>
<defs>
<filter id="filter0_d_108_73" x="0" y="0.223145" width="65" height="65" filterUnits="userSpaceOnUse" color-interpolation-filters="sRGB">
<feFlood flood-opacity="0" result="BackgroundImageFix"/>
<feColorMatrix in="SourceAlpha" type="matrix" values="0 0 0 0 0 0 0 0 0 0 0 0 0 0 0 0 0 0 127 0" result="hardAlpha"/>
<feOffset dy="2"/>
<feGaussianBlur stdDeviation="5"/>
<feColorMatrix type="matrix" values="0 0 0 0 0 0 0 0 0 0 0 0 0 0 0 0 0 0 0.1 0"/>
<feBlend mode="normal" in2="BackgroundImageFix" result="effect1_dropShadow_108_73"/>
<feBlend mode="normal" in="SourceGraphic" in2="effect1_dropShadow_108_73" result="shape"/>
</filter>
<radialGradient id="paint0_angular_108_73" cx="0" cy="0" r="1" gradientUnits="userSpaceOnUse" gradientTransform="translate(32.5 30.7231) rotate(90) scale(0.5)">
<stop stop-color="#B8D2F1"/>
<stop offset="0.166667" stop-color="#F289AA"/>
<stop offset="0.294697" stop-color="#C68BF0"/>
<stop offset="0.427083" stop-color="#D164DA"/>
<stop offset="0.614583" stop-color="#C963E8"/>
<stop offset="0.71875" stop-color="#BFC2E8"/>
<stop offset="0.802083" stop-color="#FFC999"/>
<stop offset="0.875" stop-color="#D0D8C9"/>
<stop offset="0.928149" stop-color="#BAD0F1"/>
<stop offset="0.997133" stop-color="#CED8CB"/>
<stop offset="1" stop-color="white" stop-opacity="0"/>
</radialGradient>
<clipPath id="clip0_108_73">
<rect width="16" height="16" fill="white" transform="translate(25 22.2231)"/>
</clipPath>
</defs>
</svg>
