<?xml version="1.0" encoding="UTF-8" standalone="no" ?>
<!DOCTYPE svg PUBLIC "-//W3C//DTD SVG 1.1//EN" "http://www.w3.org/Graphics/SVG/1.1/DTD/svg11.dtd">
<svg xmlns="http://www.w3.org/2000/svg" xmlns:xlink="http://www.w3.org/1999/xlink" version="1.1" width="1080" height="1080" viewBox="0 0 1080 1080" xml:space="preserve">
<desc>Created with Fabric.js 5.2.4</desc>
<defs>
</defs>
<rect x="0" y="0" width="100%" height="100%" fill="transparent"></rect>
<g transform="matrix(1 0 0 1 540 540)" id="89f219a0-bff3-4568-9f38-5e26d5ad2b10"  >
<rect style="stroke: none; stroke-width: 1; stroke-dasharray: none; stroke-linecap: butt; stroke-dashoffset: 0; stroke-linejoin: miter; stroke-miterlimit: 4; fill: rgb(255,255,255); fill-rule: nonzero; opacity: 1; visibility: hidden;" vector-effect="non-scaling-stroke"  x="-540" y="-540" rx="0" ry="0" width="1080" height="1080" />
</g>
<g transform="matrix(1 0 0 1 540 540)" id="90065caf-04b3-4a2f-897c-dfed209065b5"  >
</g>
<g transform="matrix(1 0 0 1 540 540)"  >
<g style="" vector-effect="non-scaling-stroke"   >
		<g transform="matrix(1 0 0 1 -8.19 -15)"  >
<path style="stroke: none; stroke-width: 1; stroke-dasharray: none; stroke-linecap: butt; stroke-dashoffset: 0; stroke-linejoin: miter; stroke-miterlimit: 4; fill: rgb(255,241,218); fill-rule: nonzero; opacity: 1;" vector-effect="non-scaling-stroke"  transform=" translate(-65.81, -58.5)" d="M 40.8052 64.9999 C 40.8052 74.9411 48.864 82.9999 58.8052 82.9999 L 85.8052 82.9999 C 88.5666 82.9999 90.8052 80.7614 90.8052 77.9999 L 90.8052 43.9999 C 90.8052 38.4771 86.328 33.9999 80.8052 33.9999 L 45.8052 33.9999 C 43.0437 33.9999 40.8052 36.2385 40.8052 38.9999 L 40.8052 64.9999 Z" stroke-linecap="round" />
</g>
		<g transform="matrix(1 0 0 1 12.75 9.9)"  >
<path style="stroke: none; stroke-width: 1; stroke-dasharray: none; stroke-linecap: butt; stroke-dashoffset: 0; stroke-linejoin: miter; stroke-miterlimit: 4; fill: rgb(213,214,219); fill-rule: nonzero; opacity: 1;" vector-effect="non-scaling-stroke"  transform=" translate(-86.74, -83.41)" d="M 89.3257 78.9461 C 87.9702 79.2115 86.6537 79.7423 85.4578 80.505 C 82.3415 82.4411 80.5518 85.2919 81.4604 86.8719 C 82.3691 88.4519 85.632 88.1624 88.7482 86.2263 C 89.9607 85.4925 91.0338 84.5389 91.9014 83.4247 C 92.3037 82.8858 92.368 82.2 92.0655 81.6758 L 90.8851 79.6233 C 90.5847 79.0975 89.9727 78.8322 89.3257 78.9461 Z" stroke-linecap="round" />
</g>
		<g transform="matrix(1 0 0 1 5.59 -18.32)"  >
<path style="stroke: none; stroke-width: 1; stroke-dasharray: none; stroke-linecap: butt; stroke-dashoffset: 0; stroke-linejoin: miter; stroke-miterlimit: 4; fill: rgb(213,214,219); fill-rule: nonzero; opacity: 1;" vector-effect="non-scaling-stroke"  transform=" translate(-79.58, -55.18)" d="M 81.4561 51.9517 C 80.4732 52.1443 79.5185 52.5294 78.6513 53.0825 C 76.3922 54.4861 75.0936 56.5531 75.752 57.6979 C 76.4104 58.8426 78.7772 58.6324 81.036 57.2291 C 81.9152 56.6966 82.6932 56.0049 83.3224 55.1968 C 83.6138 54.8062 83.6602 54.3093 83.441 53.9293 L 82.5863 52.4431 C 82.3687 52.062 81.9253 51.8692 81.4561 51.9517 Z" stroke-linecap="round" />
</g>
		<g transform="matrix(1 0 0 1 3.86 -13.49)"  >
<path style="stroke: none; stroke-width: 1; stroke-dasharray: none; stroke-linecap: butt; stroke-dashoffset: 0; stroke-linejoin: miter; stroke-miterlimit: 4; fill: rgb(2,155,197); fill-rule: nonzero; opacity: 1;" vector-effect="non-scaling-stroke"  transform=" translate(-77.85, -60.01)" d="M 68.6357 52.7228 C 68.416 52.6907 68.1828 52.7425 67.9817 52.8676 L 62.6772 56.1613 C 62.2335 56.4359 62.0619 56.9871 62.2944 57.3927 C 62.3475 57.4857 62.4196 57.5659 62.5067 57.6288 L 75.8209 67.3076 L 93.5087 56.325 L 68.6357 52.7228 Z" stroke-linecap="round" />
</g>
		<g transform="matrix(1 0 0 1 6.78 -4.74)"  >
<path style="stroke: none; stroke-width: 1; stroke-dasharray: none; stroke-linecap: butt; stroke-dashoffset: 0; stroke-linejoin: miter; stroke-miterlimit: 4; fill: rgb(225,230,233); fill-rule: nonzero; opacity: 1;" vector-effect="non-scaling-stroke"  transform=" translate(-80.78, -68.76)" d="M 125.08 52.4755 L 76.6603 82.6442 L 47.9217 93.5722 L 33.2251 96.1107 L 31.566 93.2081 L 112.289 43.9405 C 114.694 42.4655 117.384 41.6007 120.087 41.4336 C 121.271 41.367 122.441 41.4468 123.572 41.6704 C 124.575 41.8605 125.528 42.1947 126.403 42.6629 C 127.379 43.1929 129.226 43.3117 129.838 44.3232 C 129.84 44.3217 131.311 48.921 125.08 52.4755 Z" stroke-linecap="round" />
</g>
		<g transform="matrix(1 0 0 1 7.11 12.57)"  >
<path style="stroke: none; stroke-width: 1; stroke-dasharray: none; stroke-linecap: butt; stroke-dashoffset: 0; stroke-linejoin: miter; stroke-miterlimit: 4; fill: rgb(2,155,197); fill-rule: nonzero; opacity: 1;" vector-effect="non-scaling-stroke"  transform=" translate(-81.1, -86.07)" d="M 77.049 77.923 L 56.427 111.712 C 56.1701 112.187 56.3337 112.735 56.792 112.935 C 57.0732 113.057 57.415 113.024 57.7001 112.846 L 63.0198 109.53 C 64.0429 108.892 64.9454 108.069 65.6715 107.111 L 105.899 59.1404 L 77.049 77.923 Z" stroke-linecap="round" />
</g>
		<g transform="matrix(1 0 0 1 -43.13 10.97)"  >
<path style="stroke: none; stroke-width: 1; stroke-dasharray: none; stroke-linecap: butt; stroke-dashoffset: 0; stroke-linejoin: miter; stroke-miterlimit: 4; fill: rgb(2,155,197); fill-rule: nonzero; opacity: 1;" vector-effect="non-scaling-stroke"  transform=" translate(-30.87, -84.47)" d="M 24.1359 76.9137 C 23.7846 76.7811 23.3693 76.8304 23.0211 77.0457 L 18.6491 79.7488 C 18.0533 80.1168 17.824 80.8543 18.1365 81.3962 C 18.1961 81.4993 18.2729 81.5907 18.3645 81.667 L 30.8577 92.1015 L 43.7389 84.3001 L 24.1359 76.9137 Z" stroke-linecap="round" />
</g>
		<g transform="matrix(1 0 0 1 -38.66 22.71)"  >
<path style="stroke: none; stroke-width: 1; stroke-dasharray: none; stroke-linecap: butt; stroke-dashoffset: 0; stroke-linejoin: miter; stroke-miterlimit: 4; fill: rgb(2,155,197); fill-rule: nonzero; opacity: 1;" vector-effect="non-scaling-stroke"  transform=" translate(-35.34, -96.22)" d="M 34.8372 93.6722 L 28.2736 103.08 C 28.1773 103.215 28.2027 103.39 28.3302 103.47 C 28.4222 103.527 28.5467 103.522 28.647 103.455 L 32.7582 100.892 C 32.7902 100.872 32.819 100.847 32.8427 100.818 L 42.458 88.9263 L 34.8372 93.6722 Z" stroke-linecap="round" />
</g>
		<g transform="matrix(1 0 0 1 47.5 -28.82)"  >
<path style="stroke: none; stroke-width: 1; stroke-dasharray: none; stroke-linecap: butt; stroke-dashoffset: 0; stroke-linejoin: miter; stroke-miterlimit: 4; fill: rgb(2,155,197); fill-rule: nonzero; opacity: 1;" vector-effect="non-scaling-stroke"  transform=" translate(-121.5, -44.68)" d="M 122.893 41.8971 C 121.734 41.6695 120.533 41.5896 119.319 41.6587 C 118.159 43.3076 117.428 45.1786 117.2 47.0853 C 117.187 47.4694 117.494 47.7563 117.887 47.7261 C 118.01 47.7165 118.131 47.6767 118.239 47.61 L 125.796 42.9085 C 124.898 42.4309 123.921 42.0904 122.893 41.8971 Z" stroke-linecap="round" />
</g>
		<g transform="matrix(1 0 0 1 37.14 -20.37)"  >
<path style="stroke: none; stroke-width: 1; stroke-dasharray: none; stroke-linecap: butt; stroke-dashoffset: 0; stroke-linejoin: miter; stroke-miterlimit: 4; fill: rgb(213,214,219); fill-rule: nonzero; opacity: 1;" vector-effect="non-scaling-stroke"  transform=" translate(-111.13, -53.13)" d="M 106.332 50.6084 L 111.223 47.6284 L 115.926 55.6545 L 111.035 58.6344 L 106.332 50.6084 Z" stroke-linecap="round" />
</g>
		<g transform="matrix(1 0 0 1 30 -18.28)"  >
<path style="stroke: none; stroke-width: 1; stroke-dasharray: none; stroke-linecap: butt; stroke-dashoffset: 0; stroke-linejoin: miter; stroke-miterlimit: 4; fill: rgb(58,85,106); fill-rule: nonzero; opacity: 1;" vector-effect="non-scaling-stroke"  transform=" translate(-103.99, -55.22)" d="M 103.191 53.8437 C 102.601 54.2041 102.374 54.9283 102.684 55.4611 L 103.186 56.3243 C 103.515 56.8445 104.252 56.9595 104.831 56.581 C 105.383 56.2207 105.597 55.5383 105.321 55.0194 L 104.819 54.1562 C 104.51 53.6239 103.781 53.4839 103.191 53.8437 Z" stroke-linecap="round" />
</g>
		<g transform="matrix(1 0 0 1 25.54 -15.51)"  >
<path style="stroke: none; stroke-width: 1; stroke-dasharray: none; stroke-linecap: butt; stroke-dashoffset: 0; stroke-linejoin: miter; stroke-miterlimit: 4; fill: rgb(58,85,106); fill-rule: nonzero; opacity: 1;" vector-effect="non-scaling-stroke"  transform=" translate(-99.53, -58)" d="M 98.7267 56.6162 C 98.1368 56.9766 97.9094 57.7008 98.2192 58.2336 L 98.7213 59.0968 C 99.0508 59.6169 99.7876 59.7319 100.367 59.3535 C 100.919 58.9931 101.133 58.3108 100.857 57.7919 L 100.355 56.9287 C 100.045 56.3965 99.3164 56.2565 98.7267 56.6162 Z" stroke-linecap="round" />
</g>
		<g transform="matrix(1 0 0 1 21.07 -12.73)"  >
<path style="stroke: none; stroke-width: 1; stroke-dasharray: none; stroke-linecap: butt; stroke-dashoffset: 0; stroke-linejoin: miter; stroke-miterlimit: 4; fill: rgb(58,85,106); fill-rule: nonzero; opacity: 1;" vector-effect="non-scaling-stroke"  transform=" translate(-95.06, -60.77)" d="M 94.2609 59.3895 C 93.6716 59.7504 93.445 60.4738 93.7546 61.0061 L 94.2567 61.8692 C 94.5862 62.3894 95.323 62.5044 95.9025 62.126 C 96.4539 61.7656 96.6682 61.0833 96.3925 60.5644 L 95.8904 59.7012 C 95.5805 59.1685 94.8511 59.0289 94.2609 59.3895 Z" stroke-linecap="round" />
</g>
		<g transform="matrix(1 0 0 1 16.61 -9.96)"  >
<path style="stroke: none; stroke-width: 1; stroke-dasharray: none; stroke-linecap: butt; stroke-dashoffset: 0; stroke-linejoin: miter; stroke-miterlimit: 4; fill: rgb(58,85,106); fill-rule: nonzero; opacity: 1;" vector-effect="non-scaling-stroke"  transform=" translate(-90.6, -63.54)" d="M 89.7965 62.1618 C 89.2072 62.5228 88.9807 63.2462 89.2903 63.7785 L 89.7923 64.6417 C 90.1219 65.1619 90.8587 65.2769 91.4381 64.8984 C 91.9896 64.538 92.2039 63.8557 91.9281 63.3368 L 91.4261 62.4736 C 91.1159 61.941 90.3865 61.8014 89.7965 62.1618 Z" stroke-linecap="round" />
</g>
		<g transform="matrix(1 0 0 1 12.15 -7.17)"  >
<path style="stroke: none; stroke-width: 1; stroke-dasharray: none; stroke-linecap: butt; stroke-dashoffset: 0; stroke-linejoin: miter; stroke-miterlimit: 4; fill: rgb(58,85,106); fill-rule: nonzero; opacity: 1;" vector-effect="non-scaling-stroke"  transform=" translate(-86.14, -66.33)" d="M 85.3324 64.9344 C 84.7429 65.2954 84.5162 66.019 84.826 66.5514 L 85.3282 67.4148 C 85.6379 67.9471 86.3669 68.0865 86.9567 67.7263 C 87.5464 67.3661 87.7735 66.6427 87.4638 66.1104 L 86.9615 65.247 C 86.6527 64.7143 85.9238 64.5741 85.3337 64.9336 C 85.3332 64.934 85.3329 64.9341 85.3324 64.9344 Z" stroke-linecap="round" />
</g>
		<g transform="matrix(1 0 0 1 7.69 -4.4)"  >
<path style="stroke: none; stroke-width: 1; stroke-dasharray: none; stroke-linecap: butt; stroke-dashoffset: 0; stroke-linejoin: miter; stroke-miterlimit: 4; fill: rgb(58,85,106); fill-rule: nonzero; opacity: 1;" vector-effect="non-scaling-stroke"  transform=" translate(-81.68, -69.1)" d="M 80.8681 67.7069 C 80.2785 68.0679 80.0518 68.7914 80.3616 69.3239 L 80.8639 70.1873 C 81.1735 70.7195 81.9026 70.859 82.4923 70.4988 C 83.0821 70.1386 83.3091 69.4151 82.9995 68.8829 L 82.4972 68.0195 C 82.1883 67.4868 81.4595 67.3466 80.8693 67.7061 C 80.8688 67.7064 80.8683 67.7067 80.8681 67.7069 Z" stroke-linecap="round" />
</g>
		<g transform="matrix(1 0 0 1 3.22 -1.63)"  >
<path style="stroke: none; stroke-width: 1; stroke-dasharray: none; stroke-linecap: butt; stroke-dashoffset: 0; stroke-linejoin: miter; stroke-miterlimit: 4; fill: rgb(58,85,106); fill-rule: nonzero; opacity: 1;" vector-effect="non-scaling-stroke"  transform=" translate(-77.22, -71.87)" d="M 76.4035 70.4794 C 75.8139 70.8404 75.5872 71.5639 75.897 72.0964 L 76.3993 72.9598 C 76.7096 73.4915 77.4391 73.6299 78.0281 73.2691 C 78.6162 72.909 78.8428 72.1871 78.5346 71.6555 L 78.0323 70.7922 C 77.7228 70.2596 76.9937 70.1195 76.4035 70.4794 Z" stroke-linecap="round" />
</g>
		<g transform="matrix(1 0 0 1 -1.24 1.14)"  >
<path style="stroke: none; stroke-width: 1; stroke-dasharray: none; stroke-linecap: butt; stroke-dashoffset: 0; stroke-linejoin: miter; stroke-miterlimit: 4; fill: rgb(58,85,106); fill-rule: nonzero; opacity: 1;" vector-effect="non-scaling-stroke"  transform=" translate(-72.75, -74.65)" d="M 71.9389 73.2519 C 71.3493 73.6129 71.1226 74.3365 71.4324 74.869 L 71.9347 75.7323 C 72.245 76.2641 72.9745 76.4025 73.5635 76.0417 C 74.1516 75.6816 74.3782 74.9596 74.07 74.4281 L 73.5677 73.5647 C 73.2582 73.0321 72.5291 72.892 71.9389 73.2519 Z" stroke-linecap="round" />
</g>
		<g transform="matrix(1 0 0 1 -5.71 3.92)"  >
<path style="stroke: none; stroke-width: 1; stroke-dasharray: none; stroke-linecap: butt; stroke-dashoffset: 0; stroke-linejoin: miter; stroke-miterlimit: 4; fill: rgb(58,85,106); fill-rule: nonzero; opacity: 1;" vector-effect="non-scaling-stroke"  transform=" translate(-68.29, -77.42)" d="M 67.4746 76.0243 C 66.8851 76.3853 66.6584 77.1089 66.9682 77.6413 L 67.4704 78.5047 C 67.7808 79.0365 68.5102 79.1748 69.0993 78.8141 C 69.6874 78.454 69.914 77.732 69.6057 77.2005 L 69.1035 76.3371 C 68.7937 75.8046 68.0646 75.6646 67.4746 76.0243 Z" stroke-linecap="round" />
</g>
		<g transform="matrix(1 0 0 1 -10.17 6.69)"  >
<path style="stroke: none; stroke-width: 1; stroke-dasharray: none; stroke-linecap: butt; stroke-dashoffset: 0; stroke-linejoin: miter; stroke-miterlimit: 4; fill: rgb(58,85,106); fill-rule: nonzero; opacity: 1;" vector-effect="non-scaling-stroke"  transform=" translate(-63.82, -80.19)" d="M 63.0087 78.7976 C 62.419 79.1578 62.1919 79.8812 62.5016 80.4135 L 62.5022 80.4146 L 63.0045 81.278 C 63.3149 81.8098 64.0443 81.9481 64.6334 81.5874 C 65.2214 81.2273 65.448 80.5053 65.1398 79.9737 L 64.6375 79.1103 C 64.328 78.5777 63.5989 78.4376 63.0087 78.7976 Z" stroke-linecap="round" />
</g>
		<g transform="matrix(1 0 0 1 -14.64 9.46)"  >
<path style="stroke: none; stroke-width: 1; stroke-dasharray: none; stroke-linecap: butt; stroke-dashoffset: 0; stroke-linejoin: miter; stroke-miterlimit: 4; fill: rgb(58,85,106); fill-rule: nonzero; opacity: 1;" vector-effect="non-scaling-stroke"  transform=" translate(-59.36, -82.96)" d="M 58.5456 81.5693 C 57.9558 81.9294 57.7288 82.6529 58.0384 83.1851 L 58.0391 83.1862 L 58.5414 84.0496 C 58.8518 84.5814 59.5812 84.7197 60.1703 84.359 C 60.7584 83.9989 60.9849 83.2769 60.6767 82.7454 L 60.1744 81.882 C 59.8647 81.3496 59.1356 81.2095 58.5456 81.5693 Z" stroke-linecap="round" />
</g>
</g>
</g>
</svg>