<svg width="100" height="36" viewBox="0 0 100 36" fill="none" xmlns="http://www.w3.org/2000/svg">
<rect y="0.223145" width="100" height="35" rx="17.5" fill="#080809"/>
<path d="M21.7893 24.223C19.408 24.2093 17.4382 19.3483 17.4382 16.8727C17.4382 12.8288 20.4718 11.9435 21.641 11.9435C22.1678 11.9435 22.7304 12.1504 23.2266 12.3335C23.5736 12.4612 23.9325 12.5931 24.1321 12.5931C24.2516 12.5931 24.5331 12.4809 24.7817 12.3825C25.3118 12.1715 25.9714 11.9092 26.7395 11.9092C26.7409 11.9092 26.7427 11.9092 26.7441 11.9092C27.3176 11.9092 29.0567 12.0351 30.1022 13.6052L30.3471 13.9732L29.9947 14.2392C29.4911 14.6191 28.5724 15.3122 28.5724 16.685C28.5724 18.311 29.6129 18.9363 30.1128 19.2371C30.3334 19.3698 30.5618 19.5067 30.5618 19.8061C30.5618 20.0015 29.0018 24.1987 26.7363 24.1987C26.182 24.1987 25.7901 24.0321 25.4445 23.8852C25.0948 23.7364 24.7931 23.6082 24.2946 23.6082C24.0419 23.6082 23.7224 23.7277 23.3841 23.8545C22.9218 24.0271 22.3985 24.223 21.8048 24.223H21.7893Z" fill="white"/>
<path d="M26.9795 8.22314C27.0385 10.3505 25.5171 11.8264 23.9975 11.7338C23.7471 10.0361 25.5169 8.22314 26.9795 8.22314Z" fill="white"/>
<path d="M39.03 13.2233H40.08L38.652 9.02326H37.428L36 13.2233H37.05L37.26 12.5633H38.82L39.03 13.2233ZM37.548 11.6633L38.04 10.1213L38.532 11.6633H37.548Z" fill="white"/>
<path d="M42.2049 10.2233L41.5809 12.1253L40.9569 10.2233H39.9609L41.0709 13.2233H42.0909L43.2009 10.2233H42.2049Z" fill="white"/>
<path d="M45.592 10.2233V10.5053C45.394 10.2773 45.1 10.1393 44.698 10.1393C43.912 10.1393 43.264 10.8293 43.264 11.7233C43.264 12.6173 43.912 13.3073 44.698 13.3073C45.1 13.3073 45.394 13.1693 45.592 12.9413V13.2233H46.492V10.2233H45.592ZM44.878 12.4553C44.464 12.4553 44.164 12.1733 44.164 11.7233C44.164 11.2733 44.464 10.9913 44.878 10.9913C45.292 10.9913 45.592 11.2733 45.592 11.7233C45.592 12.1733 45.292 12.4553 44.878 12.4553Z" fill="white"/>
<path d="M47.1523 13.2233H48.0523V8.84326H47.1523V13.2233Z" fill="white"/>
<path d="M49.1609 9.95926C49.4549 9.95926 49.7009 9.71326 49.7009 9.41926C49.7009 9.12526 49.4549 8.87926 49.1609 8.87926C48.8669 8.87926 48.6209 9.12526 48.6209 9.41926C48.6209 9.71326 48.8669 9.95926 49.1609 9.95926ZM48.7109 13.2233H49.6109V10.2233H48.7109V13.2233Z" fill="white"/>
<path d="M52.0635 10.1393C51.6615 10.1393 51.3675 10.2773 51.1695 10.5053V9.02326H50.2695V13.2233H51.1695V12.9413C51.3675 13.1693 51.6615 13.3073 52.0635 13.3073C52.8495 13.3073 53.4975 12.6173 53.4975 11.7233C53.4975 10.8293 52.8495 10.1393 52.0635 10.1393ZM51.8835 12.4553C51.4695 12.4553 51.1695 12.1733 51.1695 11.7233C51.1695 11.2733 51.4695 10.9913 51.8835 10.9913C52.2975 10.9913 52.5975 11.2733 52.5975 11.7233C52.5975 12.1733 52.2975 12.4553 51.8835 12.4553Z" fill="white"/>
<path d="M54.0077 13.2233H54.9077V8.84326H54.0077V13.2233Z" fill="white"/>
<path d="M56.3703 12.0833H58.5003C58.5243 11.9693 58.5363 11.8493 58.5363 11.7233C58.5363 10.8173 57.8883 10.1393 57.0123 10.1393C56.0643 10.1393 55.4163 10.8293 55.4163 11.7233C55.4163 12.6173 56.0523 13.3073 57.0783 13.3073C57.6483 13.3073 58.0923 13.0973 58.3863 12.6893L57.6663 12.2753C57.5463 12.4073 57.3363 12.5033 57.0903 12.5033C56.7603 12.5033 56.4843 12.3953 56.3703 12.0833ZM56.3523 11.4113C56.4363 11.1053 56.6643 10.9373 57.0063 10.9373C57.2763 10.9373 57.5463 11.0633 57.6423 11.4113H56.3523Z" fill="white"/>
<path d="M61.9868 13.3073C62.8688 13.3073 63.5768 12.6173 63.5768 11.7233C63.5768 10.8293 62.8688 10.1393 61.9868 10.1393C61.1048 10.1393 60.3968 10.8293 60.3968 11.7233C60.3968 12.6173 61.1048 13.3073 61.9868 13.3073ZM61.9868 12.4313C61.5968 12.4313 61.2968 12.1493 61.2968 11.7233C61.2968 11.2973 61.5968 11.0153 61.9868 11.0153C62.3768 11.0153 62.6768 11.2973 62.6768 11.7233C62.6768 12.1493 62.3768 12.4313 61.9868 12.4313Z" fill="white"/>
<path d="M65.8439 10.1393C65.4479 10.1393 65.1479 10.2833 64.9859 10.5053V10.2233H64.0859V13.2233H64.9859V11.5853C64.9859 11.1593 65.2139 10.9673 65.5439 10.9673C65.8319 10.9673 66.0659 11.1413 66.0659 11.5133V13.2233H66.9659V11.3813C66.9659 10.5713 66.4499 10.1393 65.8439 10.1393Z" fill="white"/>
<path d="M70.8419 11.0873V10.2233H70.2239V9.38326L69.3239 9.65326V10.2233H68.8439V11.0873H69.3239V12.1493C69.3239 12.9893 69.6659 13.3433 70.8419 13.2233V12.4073C70.4459 12.4313 70.2239 12.4073 70.2239 12.1493V11.0873H70.8419Z" fill="white"/>
<path d="M73.1095 10.1393C72.7135 10.1393 72.4135 10.2833 72.2515 10.5053V9.02326H71.3515V13.2233H72.2515V11.5853C72.2515 11.1593 72.4795 10.9673 72.8095 10.9673C73.0975 10.9673 73.3315 11.1413 73.3315 11.5133V13.2233H74.2315V11.3813C74.2315 10.5713 73.7155 10.1393 73.1095 10.1393Z" fill="white"/>
<path d="M75.6535 12.0833H77.7835C77.8075 11.9693 77.8195 11.8493 77.8195 11.7233C77.8195 10.8173 77.1715 10.1393 76.2955 10.1393C75.3475 10.1393 74.6995 10.8293 74.6995 11.7233C74.6995 12.6173 75.3355 13.3073 76.3615 13.3073C76.9315 13.3073 77.3755 13.0973 77.6695 12.6893L76.9495 12.2753C76.8295 12.4073 76.6195 12.5033 76.3735 12.5033C76.0435 12.5033 75.7675 12.3953 75.6535 12.0833ZM75.6355 11.4113C75.7195 11.1053 75.9475 10.9373 76.2895 10.9373C76.5595 10.9373 76.8295 11.0633 76.9255 11.4113H75.6355Z" fill="white"/>
<path d="M41.05 24.2233H42.8L40.42 17.2233H38.38L36 24.2233H37.75L38.1 23.1233H40.7L41.05 24.2233ZM38.58 21.6233L39.4 19.0533L40.22 21.6233H38.58Z" fill="white"/>
<path d="M46.3369 19.0833C45.6669 19.0833 45.1769 19.3133 44.8469 19.6933V19.2233H43.3469V26.2233H44.8469V23.7533C45.1769 24.1333 45.6669 24.3633 46.3369 24.3633C47.6469 24.3633 48.7269 23.2133 48.7269 21.7233C48.7269 20.2333 47.6469 19.0833 46.3369 19.0833ZM46.0369 22.9433C45.3469 22.9433 44.8469 22.4733 44.8469 21.7233C44.8469 20.9733 45.3469 20.5033 46.0369 20.5033C46.7269 20.5033 47.2269 20.9733 47.2269 21.7233C47.2269 22.4733 46.7269 22.9433 46.0369 22.9433Z" fill="white"/>
<path d="M52.5673 19.0833C51.8973 19.0833 51.4073 19.3133 51.0773 19.6933V19.2233H49.5773V26.2233H51.0773V23.7533C51.4073 24.1333 51.8973 24.3633 52.5673 24.3633C53.8773 24.3633 54.9573 23.2133 54.9573 21.7233C54.9573 20.2333 53.8773 19.0833 52.5673 19.0833ZM52.2673 22.9433C51.5773 22.9433 51.0773 22.4733 51.0773 21.7233C51.0773 20.9733 51.5773 20.5033 52.2673 20.5033C52.9573 20.5033 53.4573 20.9733 53.4573 21.7233C53.4573 22.4733 52.9573 22.9433 52.2673 22.9433Z" fill="white"/>
<path d="M55.8078 24.2233H57.3078V16.9233H55.8078V24.2233Z" fill="white"/>
<path d="M59.7455 22.3233H63.2955C63.3355 22.1333 63.3555 21.9333 63.3555 21.7233C63.3555 20.2133 62.2755 19.0833 60.8155 19.0833C59.2355 19.0833 58.1555 20.2333 58.1555 21.7233C58.1555 23.2133 59.2155 24.3633 60.9255 24.3633C61.8755 24.3633 62.6155 24.0133 63.1055 23.3333L61.9055 22.6433C61.7055 22.8633 61.3555 23.0233 60.9455 23.0233C60.3955 23.0233 59.9355 22.8433 59.7455 22.3233ZM59.7155 21.2033C59.8555 20.6933 60.2355 20.4133 60.8055 20.4133C61.2555 20.4133 61.7055 20.6233 61.8655 21.2033H59.7155Z" fill="white"/>
<path d="M69.2062 24.3633C70.7262 24.3633 71.8063 23.5633 71.8063 22.2133C71.8063 20.7333 70.6163 20.3633 69.5563 20.0433C68.4663 19.7133 68.2962 19.4933 68.2962 19.1733C68.2962 18.8933 68.5462 18.6433 69.0462 18.6433C69.6862 18.6433 70.0162 18.9533 70.2562 19.4533L71.6063 18.6633C71.0963 17.6333 70.1963 17.0833 69.0462 17.0833C67.8363 17.0833 66.6963 17.8633 66.6963 19.2133C66.6963 20.5533 67.7162 21.0533 68.7562 21.3433C69.8062 21.6333 70.2062 21.8033 70.2062 22.2333C70.2062 22.5033 70.0162 22.8033 69.2562 22.8033C68.4662 22.8033 68.0363 22.4133 67.7862 21.8333L66.4062 22.6333C66.7962 23.6633 67.7362 24.3633 69.2062 24.3633Z" fill="white"/>
<path d="M75.3394 20.6633V19.2233H74.3094V17.8233L72.8094 18.2733V19.2233H72.0094V20.6633H72.8094V22.4333C72.8094 23.8333 73.3794 24.4233 75.3394 24.2233V22.8633C74.6794 22.9033 74.3094 22.8633 74.3094 22.4333V20.6633H75.3394Z" fill="white"/>
<path d="M78.491 24.3633C79.961 24.3633 81.141 23.2133 81.141 21.7233C81.141 20.2333 79.961 19.0833 78.491 19.0833C77.021 19.0833 75.841 20.2333 75.841 21.7233C75.841 23.2133 77.021 24.3633 78.491 24.3633ZM78.491 22.9033C77.841 22.9033 77.341 22.4333 77.341 21.7233C77.341 21.0133 77.841 20.5433 78.491 20.5433C79.141 20.5433 79.641 21.0133 79.641 21.7233C79.641 22.4333 79.141 22.9033 78.491 22.9033Z" fill="white"/>
<path d="M83.4895 20.1133V19.2233H81.9895V24.2233H83.4895V21.9633C83.4895 20.9733 84.3695 20.7233 84.9895 20.8233V19.1233C84.3595 19.1233 83.6895 19.4433 83.4895 20.1133Z" fill="white"/>
<path d="M86.8841 22.3233H90.4341C90.4741 22.1333 90.4941 21.9333 90.4941 21.7233C90.4941 20.2133 89.4141 19.0833 87.9541 19.0833C86.3741 19.0833 85.2941 20.2333 85.2941 21.7233C85.2941 23.2133 86.3541 24.3633 88.0641 24.3633C89.0141 24.3633 89.7541 24.0133 90.2441 23.3333L89.0441 22.6433C88.8441 22.8633 88.4941 23.0233 88.0841 23.0233C87.5341 23.0233 87.0741 22.8433 86.8841 22.3233ZM86.8541 21.2033C86.9941 20.6933 87.3741 20.4133 87.9441 20.4133C88.3941 20.4133 88.8441 20.6233 89.0041 21.2033H86.8541Z" fill="white"/>
</svg>
