<svg xmlns="http://www.w3.org/2000/svg" width="1257" height="407" fill="none" style=""><rect id="backgroundrect" width="100%" height="100%" x="0" y="0" fill="none" stroke="none"/>



<defs>
<linearGradient id="paint0_linear_1_459" x1="0.7100379856820342" y1="0.02670970691904556" x2="0.017992375014852662" y2="1.009314633892584">
<stop stop-color="#747DEF"/>
<stop offset="1" stop-color="#5E3BE1"/>
</linearGradient>
<linearGradient id="paint1_linear_1_459" x1="0.712597147623698" y1="0.027070772175002446" x2="0.022788916693793404" y2="1.0095323152482385">
<stop stop-color="#747DEF"/>
<stop offset="1" stop-color="#5E3BE1"/>
</linearGradient>
</defs>
<g class="currentLayer" style=""><title>Layer 1</title><path opacity="0.2" d="M1256.2701334811586,19.984014981691704 C1256.2701334811586,8.958692485743201 1246.6724322747623,0.020911699964873187 1234.8227564836247,0.020911699964873187 H139.93416075953263 C63.533242050068424,0.020911699964873187 1.598579125440665,57.66966264832075 1.598579125440665,128.78292786710293 V386.30696020137907 C1.598579125440665,397.3325821438768 11.200891517891442,406.2700634831059 23.045956122974303,406.2700634831059 H1234.8227564836247 C1246.6724322747623,406.2700634831059 1256.2701334811586,397.3325821438768 1256.2701334811586,386.30696020137907 V19.984014981691704 z" fill="#DFD7F9" id="svg_1" class="selected"/><g opacity="0.1" id="svg_2">
<mask id="mask0_1_459" style="mask-type:alpha" maskUnits="userSpaceOnUse" x="993" y="0" width="264" height="352">
<path d="M993.5 0.5H1233C1245.98 0.5 1256.5 11.0213 1256.5 24V351.022H1043C1015.66 351.022 993.5 328.86 993.5 301.522V0.5Z" fill="url(#paint0_linear_1_459)" stroke="#6246E5" id="svg_3"/>
</mask>
<g mask="url(#mask0_1_459)" id="svg_4">
<circle cx="1232.010009765625" cy="178.32000732421875" r="91.80329895019531" stroke="#6246E5" id="svg_5"/>
<circle cx="1224.72998046875" cy="168.60400390625" r="102.73400115966797" stroke="#6246E5" id="svg_6"/>
<circle cx="1218.6600341796875" cy="160.7100067138672" r="112.44999694824219" stroke="#6246E5" id="svg_7"/>
<circle cx="1212.5799560546875" cy="149.17100524902344" r="120.9520034790039" stroke="#6246E5" id="svg_8"/>
<circle cx="1206.81005859375" cy="137.93699645996094" r="129.14999389648438" stroke="#6246E5" id="svg_9"/>
<circle cx="1197.0999755859375" cy="125.18499755859375" r="141.90199279785156" stroke="#6246E5" id="svg_10"/>
</g>
</g><g opacity="0.1" id="svg_11">
<mask id="mask1_1_459" style="mask-type:alpha" maskUnits="userSpaceOnUse" x="0" y="46" width="480" height="361">
<rect x="479.5" y="46.5" width="360" height="479" transform="rotate(90 479.5,46.500000000000036) " fill="url(#paint1_linear_1_459)" stroke="#6246E5" id="svg_12"/>
</mask>
<g mask="url(#mask1_1_459)" id="svg_13">
<path d="M236.505 499.92C167.172 499.92 110.966 443.635 110.966 374.202C110.966 304.769 167.172 248.484 236.505 248.484C305.838 248.484 362.045 304.769 362.045 374.202C362.045 443.635 305.838 499.92 236.505 499.92Z" stroke="#6246E5" id="svg_14"/>
<path d="M249.773 504.902C172.197 504.902 109.307 441.925 109.307 364.237C109.307 286.55 172.197 223.573 249.773 223.573C327.349 223.573 390.238 286.55 390.238 364.237C390.238 441.925 327.349 504.902 249.773 504.902Z" stroke="#6246E5" id="svg_15"/>
<path d="M260.552 509.885C175.649 509.885 106.82 440.959 106.82 355.934C106.82 270.909 175.649 201.983 260.552 201.983C345.456 201.983 414.285 270.909 414.285 355.934C414.285 440.959 345.456 509.885 260.552 509.885Z" stroke="#6246E5" id="svg_16"/>
<path d="M276.308 513.206C184.993 513.206 110.966 439.076 110.966 347.63C110.966 256.184 184.993 182.054 276.308 182.054C367.622 182.054 441.649 256.184 441.649 347.63C441.649 439.076 367.622 513.206 276.308 513.206Z" stroke="#6246E5" id="svg_17"/>
<path d="M291.648 516.528C194.15 516.528 115.112 437.378 115.112 339.742C115.112 242.105 194.15 162.955 291.648 162.955C389.145 162.955 468.183 242.105 468.183 339.742C468.183 437.379 389.145 516.528 291.648 516.528Z" stroke="#6246E5" id="svg_18"/>
<path d="M309.061 520.68C201.947 520.68 115.112 433.723 115.112 326.456C115.112 219.188 201.947 132.231 309.061 132.231C416.175 132.231 503.01 219.188 503.01 326.456C503.01 433.723 416.175 520.68 309.061 520.68Z" stroke="#6246E5" id="svg_19"/>
</g>
</g></g></svg>